<svg width="18" height="19" viewBox="0 0 18 19" fill="none"
    xmlns="http://www.w3.org/2000/svg" class="c-ctigpz c-ctigpz-idYqlnq-css">
    <path fill-rule="evenodd" clip-rule="evenodd" d="M14.5718 6.19853C13.8002 5.47411 13.132 4.76981 11.7128 4.69603C10.5692 4.64907 10.0456 5.32654 8.97783 5.34667C7.9789 5.3802 8.05468 4.60212 5.98793 4.82347C4.19674 5.01799 2.6329 6.76197 2.75691 9.20354C2.88091 11.8463 4.76854 15.502 6.53906 15.502C7.786 15.4752 8.08223 14.8983 9.10183 14.8983C10.3694 14.8983 10.6657 15.6227 11.6646 15.4819C13.38 15.2404 14.999 12.5976 14.999 11.7524C14.0551 11.2695 13.1113 10.4444 12.9873 9.06268C12.884 7.68091 13.752 6.80892 14.5718 6.19853Z" fill="currentColor"></path>
    <path fill-rule="evenodd" clip-rule="evenodd" d="M8.62635 4.8893C8.50234 3.9234 9.17748 1.81721 11.5405 1.50195C11.8091 3.1252 10.4451 4.98991 8.62635 4.8893Z" fill="currentColor"></path>
</svg>