<svg width="24" height="24" viewBox="0 0 24 24" fill="none"
    xmlns="http://www.w3.org/2000/svg" class="c-ctigpz c-ctigpz-iixnjYu-css">
    <path d="M4 18H20" stroke="#1C1E21" stroke-width="2" stroke-linecap="round" stroke-linejoin="round"></path>
    <path d="M6 18L6 11C6 7.68629 8.68629 5 12 5V5C15.3137 5 18 7.68629 18 11L18 18L6 18Z" stroke="#1C1E21" stroke-width="2"></path>
    <path d="M15 18V18C15 19.6569 13.6569 21 12 21V21C10.3431 21 9 19.6569 9 18V18" stroke="#1C1E21" stroke-width="2"></path>
    <path d="M13 3C13 2.44772 12.5523 2 12 2C11.4477 2 11 2.44772 11 3H13ZM11 4V5H13V4H11ZM11 3V4H13V3H11Z" fill="#1C1E21"></path>
</svg>