<svg xmlns="http://www.w3.org/2000/svg"
    xmlns:xlink="http://www.w3.org/1999/xlink" viewBox="0 0 243 216" width="243" height="216" preserveAspectRatio="xMidYMid meet" style="width: 100%; height: 100%; transform: translate3d(0px, 0px, 0px); content-visibility: visible;">
    <defs>
        <clipPath id="__lottie_element_53">
            <rect width="243" height="216" x="0" y="0"></rect>
        </clipPath>
        <clipPath id="__lottie_element_61">
            <path fill="#ffffff" clip-rule="nonzero" d=" M5.314000129699707,79.3280029296875 C5.314000129699707,79.3280029296875 113.81400299072266,137.00399780273438 113.81400299072266,137.00399780273438 C113.81400299072266,137.00399780273438 221.04600524902344,78.50399780273438 221.04600524902344,78.50399780273438 C221.04600524902344,78.50399780273438 114.0459976196289,21.827999114990234 114.0459976196289,21.827999114990234 C114.0459976196289,21.827999114990234 5.314000129699707,79.3280029296875 5.314000129699707,79.3280029296875" fill-opacity="1"></path>
        </clipPath>
        <clipPath id="__lottie_element_64">
            <path fill="#ffffff" clip-rule="nonzero" d=" M-38.18600082397461,63.327999114990234 C-38.18600082397461,63.327999114990234 68.31400299072266,120.50399780273438 68.31400299072266,120.50399780273438 C68.31400299072266,120.50399780273438 175.04600524902344,62.00400161743164 175.04600524902344,62.00400161743164 C175.04600524902344,62.00400161743164 70.5459976196289,4.828000068664551 70.5459976196289,4.828000068664551 C70.5459976196289,4.828000068664551 -38.18600082397461,63.327999114990234 -38.18600082397461,63.327999114990234" fill-opacity="1"></path>
        </clipPath>
    </defs>
    <g clip-path="url(#__lottie_element_53)">
        <g transform="matrix(1,0,0,1,2.0490036010742188,8.083999633789062)" opacity="1" style="display: block;">
            <g opacity="1" transform="matrix(1,0,0,1,116.45099639892578,65.58699798583984)">
                <path fill="rgb(255,108,159)" fill-opacity="1" d=" M54.68199920654297,-29.25 C54.68199920654297,-29.25 0,-58.499000549316406 0,-58.499000549316406 C0,-58.499000549316406 -54.68199920654297,-29.25 -54.68199920654297,-29.25 C-54.68199920654297,-29.25 -109.36399841308594,-0.0010000000474974513 -109.36399841308594,-0.0010000000474974513 C-109.36399841308594,-0.0010000000474974513 -54.68199920654297,29.249000549316406 -54.68199920654297,29.249000549316406 C-54.68199920654297,29.249000549316406 0,58.499000549316406 0,58.499000549316406 C0,58.499000549316406 54.68199920654297,29.249000549316406 54.68199920654297,29.249000549316406 C54.68199920654297,29.249000549316406 109.36399841308594,-0.0010000000474974513 109.36399841308594,-0.0010000000474974513 C109.36399841308594,-0.0010000000474974513 54.68199920654297,-29.25 54.68199920654297,-29.25z"></path>
            </g>
            <g opacity="1" transform="matrix(1,0,0,1,116.45099639892578,65.58599853515625)">
                <path fill="rgb(141,27,69)" fill-opacity="1" d=" M-109.36399841308594,0.0010000000474974513 C-109.36399841308594,0.0010000000474974513 0,-58.499000549316406 0,-58.499000549316406 C0,-58.499000549316406 109.36399841308594,0.0010000000474974513 109.36399841308594,0.0010000000474974513 C109.36399841308594,0.0010000000474974513 0,58.499000549316406 0,58.499000549316406 C0,58.499000549316406 -109.36399841308594,0.0010000000474974513 -109.36399841308594,0.0010000000474974513z"></path>
                <path stroke-linecap="round" stroke-linejoin="round" fill-opacity="0" stroke="rgb(0,0,0)" stroke-opacity="1" stroke-width="2.835" d=" M-109.36399841308594,0.0010000000474974513 C-109.36399841308594,0.0010000000474974513 0,-58.499000549316406 0,-58.499000549316406 C0,-58.499000549316406 109.36399841308594,0.0010000000474974513 109.36399841308594,0.0010000000474974513 C109.36399841308594,0.0010000000474974513 0,58.499000549316406 0,58.499000549316406 C0,58.499000549316406 -109.36399841308594,0.0010000000474974513 -109.36399841308594,0.0010000000474974513z"></path>
            </g>
            <g opacity="1" transform="matrix(1,0,0,1,61.76900100708008,132.1649932861328)">
                <path fill="rgb(239,219,219)" fill-opacity="1" d=" M-54.68199920654297,-66.5780029296875 C-54.68199920654297,-66.5780029296875 -54.68199920654297,8.081000328063965 -54.68199920654297,8.081000328063965 C-54.68199920654297,8.081000328063965 54.68199920654297,66.5790023803711 54.68199920654297,66.5790023803711 C54.68199920654297,66.5790023803711 54.68199920654297,-8.079000473022461 54.68199920654297,-8.079000473022461 C54.68199920654297,-8.079000473022461 -54.68199920654297,-66.5780029296875 -54.68199920654297,-66.5780029296875z"></path>
                <path stroke-linecap="round" stroke-linejoin="round" fill-opacity="0" stroke="rgb(0,0,0)" stroke-opacity="1" stroke-width="2.835" d=" M-54.68199920654297,-66.5780029296875 C-54.68199920654297,-66.5780029296875 -54.68199920654297,8.081000328063965 -54.68199920654297,8.081000328063965 C-54.68199920654297,8.081000328063965 54.68199920654297,66.5790023803711 54.68199920654297,66.5790023803711 C54.68199920654297,66.5790023803711 54.68199920654297,-8.079000473022461 54.68199920654297,-8.079000473022461 C54.68199920654297,-8.079000473022461 -54.68199920654297,-66.5780029296875 -54.68199920654297,-66.5780029296875z"></path>
            </g>
            <g opacity="1" transform="matrix(1,0,0,1,171.13299560546875,132.1649932861328)">
                <path fill="rgb(199,179,179)" fill-opacity="1" d=" M-54.68199920654297,-8.079999923706055 C-54.68199920654297,-8.079999923706055 -54.68199920654297,66.5790023803711 -54.68199920654297,66.5790023803711 C-54.68199920654297,66.5790023803711 54.68199920654297,3.2890000343322754 54.68199920654297,3.2890000343322754 C54.68199920654297,3.2890000343322754 54.68199920654297,-66.5790023803711 54.68199920654297,-66.5790023803711 C54.68199920654297,-66.5790023803711 -54.68199920654297,-8.079999923706055 -54.68199920654297,-8.079999923706055z"></path>
                <path stroke-linecap="round" stroke-linejoin="round" fill-opacity="0" stroke="rgb(0,0,0)" stroke-opacity="1" stroke-width="2.835" d=" M-54.68199920654297,-8.079999923706055 C-54.68199920654297,-8.079999923706055 -54.68199920654297,66.5790023803711 -54.68199920654297,66.5790023803711 C-54.68199920654297,66.5790023803711 54.68199920654297,3.2890000343322754 54.68199920654297,3.2890000343322754 C54.68199920654297,3.2890000343322754 54.68199920654297,-66.5790023803711 54.68199920654297,-66.5790023803711 C54.68199920654297,-66.5790023803711 -54.68199920654297,-8.079999923706055 -54.68199920654297,-8.079999923706055z"></path>
            </g>
            <g opacity="1" transform="matrix(1,0,0,1,143.79200744628906,80.21099853515625)">
                <path fill="rgb(249,239,239)" fill-opacity="1" d=" M27.340999603271484,-43.874000549316406 C27.340999603271484,-43.874000549316406 -82.02300262451172,14.625 -82.02300262451172,14.625 C-82.02300262451172,14.625 -27.340999603271484,43.874000549316406 -27.340999603271484,43.874000549316406 C-27.340999603271484,43.874000549316406 82.02300262451172,-14.625 82.02300262451172,-14.625 C82.02300262451172,-14.625 27.340999603271484,-43.874000549316406 27.340999603271484,-43.874000549316406z"></path>
                <path stroke-linecap="round" stroke-linejoin="round" fill-opacity="0" stroke="rgb(0,0,0)" stroke-opacity="1" stroke-width="2.835" d=" M27.340999603271484,-43.874000549316406 C27.340999603271484,-43.874000549316406 -82.02300262451172,14.625 -82.02300262451172,14.625 C-82.02300262451172,14.625 -27.340999603271484,43.874000549316406 -27.340999603271484,43.874000549316406 C-27.340999603271484,43.874000549316406 82.02300262451172,-14.625 82.02300262451172,-14.625 C82.02300262451172,-14.625 27.340999603271484,-43.874000549316406 27.340999603271484,-43.874000549316406z"></path>
            </g>
        </g>
        <g style="display: none;" transform="matrix(1,0,0,1,102.68699645996094,55.13800048828125)" opacity="0.10485547607578269">
            <g opacity="1" transform="matrix(1,0,0,1,46.917999267578125,34.262001037597656)">
                <path fill="rgb(255,59,128)" fill-opacity="1" d=" M22.238000869750977,-20.642000198364258 C14.913999557495117,-27.163000106811523 5.7270002365112305,-27.174999237060547 -0.6449999809265137,-24.576000213623047 C-6.361999988555908,-22.243999481201172 -9.72700023651123,-16.74799919128418 -8.539999961853027,-11.845999717712402 C-14.930999755859375,-13.690999984741211 -25.66200065612793,-12.104999542236328 -30.986000061035156,-8.977999687194824 C-39.14899826049805,-4.183000087738037 -39.83100128173828,4.989999771118164 -32.50699996948242,11.51099967956543 C-32.428001403808594,11.581000328063965 -32.345001220703125,11.645999908447266 -32.26599884033203,11.71500015258789 C-32.18600082397461,11.788000106811523 -32.11600112915039,11.857999801635742 -32.03300094604492,11.932000160217285 C-14.913999557495117,27.174999237060547 21.80299949645996,19.41900062561035 21.80299949645996,19.41900062561035 C21.80299949645996,19.41900062561035 39.83100128173828,-4.978000164031982 22.711000442504883,-20.22100067138672 C22.628000259399414,-20.29400062561035 22.547000885009766,-20.358999252319336 22.46500015258789,-20.43000030517578 C22.38800048828125,-20.500999450683594 22.31599998474121,-20.57200050354004 22.238000869750977,-20.642000198364258z"></path>
                <path stroke-linecap="round" stroke-linejoin="round" fill-opacity="0" stroke="rgb(0,0,0)" stroke-opacity="1" stroke-width="2.835" d=" M22.238000869750977,-20.642000198364258 C14.913999557495117,-27.163000106811523 5.7270002365112305,-27.174999237060547 -0.6449999809265137,-24.576000213623047 C-6.361999988555908,-22.243999481201172 -9.72700023651123,-16.74799919128418 -8.539999961853027,-11.845999717712402 C-14.930999755859375,-13.690999984741211 -25.66200065612793,-12.104999542236328 -30.986000061035156,-8.977999687194824 C-39.14899826049805,-4.183000087738037 -39.83100128173828,4.989999771118164 -32.50699996948242,11.51099967956543 C-32.428001403808594,11.581000328063965 -32.345001220703125,11.645999908447266 -32.26599884033203,11.71500015258789 C-32.18600082397461,11.788000106811523 -32.11600112915039,11.857999801635742 -32.03300094604492,11.932000160217285 C-14.913999557495117,27.174999237060547 21.80299949645996,19.41900062561035 21.80299949645996,19.41900062561035 C21.80299949645996,19.41900062561035 39.83100128173828,-4.978000164031982 22.711000442504883,-20.22100067138672 C22.628000259399414,-20.29400062561035 22.547000885009766,-20.358999252319336 22.46500015258789,-20.43000030517578 C22.38800048828125,-20.500999450683594 22.31599998474121,-20.57200050354004 22.238000869750977,-20.642000198364258z"></path>
            </g>
        </g>
        <g clip-path="url(#__lottie_element_64)" style="display: none;" transform="matrix(1,0,0,1,70.20511627197266,20.515216827392578)" opacity="1">
            <g opacity="1" transform="matrix(1,0,0,1,49.834999084472656,42.150001525878906)">
                <path fill="rgb(255,255,255)" fill-opacity="1" d=" M-13.854000091552734,-26.402000427246094 C5.502999782562256,-35.0629997253418 29.075000762939453,-11.95199966430664 36.224998474121094,-6.244999885559082 C41.573001861572266,-1.975000023841858 42.74800109863281,3.427000045776367 40.88199996948242,8.154999732971191 C39.37099838256836,11.982999801635742 34.25400161743164,12.810999870300293 34.25400161743164,12.810999870300293 C34.25400161743164,12.810999870300293 34.59700012207031,16.80900001525879 32.77000045776367,19.214000701904297 C29.420000076293945,23.621000289916992 23.535999298095703,22.628000259399414 23.535999298095703,22.628000259399414 C23.535999298095703,22.628000259399414 22.32200050354004,32.56999969482422 12.222999572753906,29.910999298095703 C12.222999572753906,29.910999298095703 8.847999572753906,35.0620002746582 1.840000033378601,32.762001037597656 C-6.872000217437744,29.902999877929688 -20.520999908447266,18.37700080871582 -26.54199981689453,13.555000305175781 C-34.380001068115234,7.2779998779296875 -42.74800109863281,-13.473999977111816 -13.854000091552734,-26.402000427246094z"></path>
                <path stroke-linecap="round" stroke-linejoin="round" fill-opacity="0" stroke="rgb(0,0,0)" stroke-opacity="1" stroke-width="2.835" d=" M-13.854000091552734,-26.402000427246094 C5.502999782562256,-35.0629997253418 29.075000762939453,-11.95199966430664 36.224998474121094,-6.244999885559082 C41.573001861572266,-1.975000023841858 42.74800109863281,3.427000045776367 40.88199996948242,8.154999732971191 C39.37099838256836,11.982999801635742 34.25400161743164,12.810999870300293 34.25400161743164,12.810999870300293 C34.25400161743164,12.810999870300293 34.59700012207031,16.80900001525879 32.77000045776367,19.214000701904297 C29.420000076293945,23.621000289916992 23.535999298095703,22.628000259399414 23.535999298095703,22.628000259399414 C23.535999298095703,22.628000259399414 22.32200050354004,32.56999969482422 12.222999572753906,29.910999298095703 C12.222999572753906,29.910999298095703 8.847999572753906,35.0620002746582 1.840000033378601,32.762001037597656 C-6.872000217437744,29.902999877929688 -20.520999908447266,18.37700080871582 -26.54199981689453,13.555000305175781 C-34.380001068115234,7.2779998779296875 -42.74800109863281,-13.473999977111816 -13.854000091552734,-26.402000427246094z"></path>
            </g>
            <g opacity="1" transform="matrix(1,0,0,1,83.5739974975586,52.632999420166016)">
                <path fill="rgb(255,255,255)" fill-opacity="1" d=" M-0.5149999856948853,-2.3269999027252197 C-0.5149999856948853,-2.3269999027252197 0.3440000116825104,-0.6819999814033508 0.5149999856948853,2.3269999027252197"></path>
                <path stroke-linecap="round" stroke-linejoin="round" fill-opacity="0" stroke="rgb(0,0,0)" stroke-opacity="1" stroke-width="2.835" d=" M-0.5149999856948853,-2.3269999027252197 C-0.5149999856948853,-2.3269999027252197 0.3440000116825104,-0.6819999814033508 0.5149999856948853,2.3269999027252197"></path>
            </g>
            <g opacity="1" transform="matrix(1,0,0,1,73.2249984741211,61.2869987487793)">
                <path fill="rgb(255,255,255)" fill-opacity="1" d=" M-0.7699999809265137,-3.490000009536743 C-0.7699999809265137,-3.490000009536743 0.7689999938011169,0.0010000000474974513 0.1459999978542328,3.490000009536743"></path>
                <path stroke-linecap="round" stroke-linejoin="round" fill-opacity="0" stroke="rgb(0,0,0)" stroke-opacity="1" stroke-width="2.835" d=" M-0.7699999809265137,-3.490000009536743 C-0.7699999809265137,-3.490000009536743 0.7689999938011169,0.0010000000474974513 0.1459999978542328,3.490000009536743"></path>
            </g>
            <g opacity="1" transform="matrix(1,0,0,1,62.96699905395508,69.15799713134766)">
                <path fill="rgb(255,255,255)" fill-opacity="1" d=" M-0.2840000092983246,-2.9040000438690186 C-0.2840000092983246,-2.9040000438690186 0.9079999923706055,0.40799999237060547 -0.9089999794960022,2.9040000438690186"></path>
                <path stroke-linecap="round" stroke-linejoin="round" fill-opacity="0" stroke="rgb(0,0,0)" stroke-opacity="1" stroke-width="2.835" d=" M-0.2840000092983246,-2.9040000438690186 C-0.2840000092983246,-2.9040000438690186 0.9079999923706055,0.40799999237060547 -0.9089999794960022,2.9040000438690186"></path>
            </g>
            <g opacity="1" transform="matrix(1,0,0,1,37.569000244140625,38.46900177001953)">
                <path fill="rgb(190,142,91)" fill-opacity="1" d=" M10.394000053405762,14.210000038146973 C13.230999946594238,12.083999633789062 14.505000114440918,8.956000328063965 16.98200035095215,6.577000141143799 C19.216999053955078,4.431000232696533 21.889999389648438,2.8940000534057617 23.57200050354004,0.19499999284744263 C25.183000564575195,-2.390000104904175 25.766000747680664,-5.703999996185303 24.365999221801758,-8.45199966430664 C19.697999954223633,-17.139999389648438 6.033999919891357,-19.006000518798828 0.4790000021457672,-16.520000457763672 C-9.782999992370605,-11.928000450134277 -25.766000747680664,3.7320001125335693 -12.602999687194824,13.489999771118164 C-11.968999862670898,14.166000366210938 -11.14799976348877,14.710000038146973 -10.239999771118164,15.092000007629395 C-3.302999973297119,18.01300048828125 3.993000030517578,19.006999969482422 10.394000053405762,14.210000038146973z"></path>
                <path stroke-linecap="round" stroke-linejoin="round" fill-opacity="0" stroke="rgb(0,0,0)" stroke-opacity="1" stroke-width="2.835" d=" M10.394000053405762,14.210000038146973 C13.230999946594238,12.083999633789062 14.505000114440918,8.956000328063965 16.98200035095215,6.577000141143799 C19.216999053955078,4.431000232696533 21.889999389648438,2.8940000534057617 23.57200050354004,0.19499999284744263 C25.183000564575195,-2.390000104904175 25.766000747680664,-5.703999996185303 24.365999221801758,-8.45199966430664 C19.697999954223633,-17.139999389648438 6.033999919891357,-19.006000518798828 0.4790000021457672,-16.520000457763672 C-9.782999992370605,-11.928000450134277 -25.766000747680664,3.7320001125335693 -12.602999687194824,13.489999771118164 C-11.968999862670898,14.166000366210938 -11.14799976348877,14.710000038146973 -10.239999771118164,15.092000007629395 C-3.302999973297119,18.01300048828125 3.993000030517578,19.006999969482422 10.394000053405762,14.210000038146973z"></path>
            </g>
        </g>
        <g clip-path="url(#__lottie_element_61)" style="display: none;" transform="matrix(1,0,0,1,5.314994812011719,-4.438999176025391)" opacity="1">
            <g opacity="1" transform="matrix(1,0,0,1,49.834999084472656,42.150001525878906)">
                <path fill="rgb(255,255,255)" fill-opacity="1" d=" M-13.854000091552734,-26.402000427246094 C5.502999782562256,-35.0629997253418 29.075000762939453,-11.95199966430664 36.224998474121094,-6.244999885559082 C41.573001861572266,-1.975000023841858 42.74800109863281,3.427000045776367 40.88199996948242,8.154999732971191 C39.37099838256836,11.982999801635742 34.25400161743164,12.810999870300293 34.25400161743164,12.810999870300293 C34.25400161743164,12.810999870300293 34.59700012207031,16.80900001525879 32.77000045776367,19.214000701904297 C29.420000076293945,23.621000289916992 23.535999298095703,22.628000259399414 23.535999298095703,22.628000259399414 C23.535999298095703,22.628000259399414 22.32200050354004,32.56999969482422 12.222999572753906,29.910999298095703 C12.222999572753906,29.910999298095703 8.847999572753906,35.0620002746582 1.840000033378601,32.762001037597656 C-6.872000217437744,29.902999877929688 -20.520999908447266,18.37700080871582 -26.54199981689453,13.555000305175781 C-34.380001068115234,7.2779998779296875 -42.74800109863281,-13.473999977111816 -13.854000091552734,-26.402000427246094z"></path>
                <path stroke-linecap="round" stroke-linejoin="round" fill-opacity="0" stroke="rgb(0,0,0)" stroke-opacity="1" stroke-width="2.835" d=" M-13.854000091552734,-26.402000427246094 C5.502999782562256,-35.0629997253418 29.075000762939453,-11.95199966430664 36.224998474121094,-6.244999885559082 C41.573001861572266,-1.975000023841858 42.74800109863281,3.427000045776367 40.88199996948242,8.154999732971191 C39.37099838256836,11.982999801635742 34.25400161743164,12.810999870300293 34.25400161743164,12.810999870300293 C34.25400161743164,12.810999870300293 34.59700012207031,16.80900001525879 32.77000045776367,19.214000701904297 C29.420000076293945,23.621000289916992 23.535999298095703,22.628000259399414 23.535999298095703,22.628000259399414 C23.535999298095703,22.628000259399414 22.32200050354004,32.56999969482422 12.222999572753906,29.910999298095703 C12.222999572753906,29.910999298095703 8.847999572753906,35.0620002746582 1.840000033378601,32.762001037597656 C-6.872000217437744,29.902999877929688 -20.520999908447266,18.37700080871582 -26.54199981689453,13.555000305175781 C-34.380001068115234,7.2779998779296875 -42.74800109863281,-13.473999977111816 -13.854000091552734,-26.402000427246094z"></path>
            </g>
            <g opacity="1" transform="matrix(1,0,0,1,83.5739974975586,52.632999420166016)">
                <path fill="rgb(255,255,255)" fill-opacity="1" d=" M-0.5149999856948853,-2.3269999027252197 C-0.5149999856948853,-2.3269999027252197 0.3440000116825104,-0.6819999814033508 0.5149999856948853,2.3269999027252197"></path>
                <path stroke-linecap="round" stroke-linejoin="round" fill-opacity="0" stroke="rgb(0,0,0)" stroke-opacity="1" stroke-width="2.835" d=" M-0.5149999856948853,-2.3269999027252197 C-0.5149999856948853,-2.3269999027252197 0.3440000116825104,-0.6819999814033508 0.5149999856948853,2.3269999027252197"></path>
            </g>
            <g opacity="1" transform="matrix(1,0,0,1,73.2249984741211,61.2869987487793)">
                <path fill="rgb(255,255,255)" fill-opacity="1" d=" M-0.7699999809265137,-3.490000009536743 C-0.7699999809265137,-3.490000009536743 0.7689999938011169,0.0010000000474974513 0.1459999978542328,3.490000009536743"></path>
                <path stroke-linecap="round" stroke-linejoin="round" fill-opacity="0" stroke="rgb(0,0,0)" stroke-opacity="1" stroke-width="2.835" d=" M-0.7699999809265137,-3.490000009536743 C-0.7699999809265137,-3.490000009536743 0.7689999938011169,0.0010000000474974513 0.1459999978542328,3.490000009536743"></path>
            </g>
            <g opacity="1" transform="matrix(1,0,0,1,62.96699905395508,69.15799713134766)">
                <path fill="rgb(255,255,255)" fill-opacity="1" d=" M-0.2840000092983246,-2.9040000438690186 C-0.2840000092983246,-2.9040000438690186 0.9079999923706055,0.40799999237060547 -0.9089999794960022,2.9040000438690186"></path>
                <path stroke-linecap="round" stroke-linejoin="round" fill-opacity="0" stroke="rgb(0,0,0)" stroke-opacity="1" stroke-width="2.835" d=" M-0.2840000092983246,-2.9040000438690186 C-0.2840000092983246,-2.9040000438690186 0.9079999923706055,0.40799999237060547 -0.9089999794960022,2.9040000438690186"></path>
            </g>
            <g opacity="1" transform="matrix(1,0,0,1,37.569000244140625,38.46900177001953)">
                <path fill="rgb(190,142,91)" fill-opacity="1" d=" M10.394000053405762,14.210000038146973 C13.230999946594238,12.083999633789062 14.505000114440918,8.956000328063965 16.98200035095215,6.577000141143799 C19.216999053955078,4.431000232696533 21.889999389648438,2.8940000534057617 23.57200050354004,0.19499999284744263 C25.183000564575195,-2.390000104904175 25.766000747680664,-5.703999996185303 24.365999221801758,-8.45199966430664 C19.697999954223633,-17.139999389648438 6.033999919891357,-19.006000518798828 0.4790000021457672,-16.520000457763672 C-9.782999992370605,-11.928000450134277 -25.766000747680664,3.7320001125335693 -12.602999687194824,13.489999771118164 C-11.968999862670898,14.166000366210938 -11.14799976348877,14.710000038146973 -10.239999771118164,15.092000007629395 C-3.302999973297119,18.01300048828125 3.993000030517578,19.006999969482422 10.394000053405762,14.210000038146973z"></path>
                <path stroke-linecap="round" stroke-linejoin="round" fill-opacity="0" stroke="rgb(0,0,0)" stroke-opacity="1" stroke-width="2.835" d=" M10.394000053405762,14.210000038146973 C13.230999946594238,12.083999633789062 14.505000114440918,8.956000328063965 16.98200035095215,6.577000141143799 C19.216999053955078,4.431000232696533 21.889999389648438,2.8940000534057617 23.57200050354004,0.19499999284744263 C25.183000564575195,-2.390000104904175 25.766000747680664,-5.703999996185303 24.365999221801758,-8.45199966430664 C19.697999954223633,-17.139999389648438 6.033999919891357,-19.006000518798828 0.4790000021457672,-16.520000457763672 C-9.782999992370605,-11.928000450134277 -25.766000747680664,3.7320001125335693 -12.602999687194824,13.489999771118164 C-11.968999862670898,14.166000366210938 -11.14799976348877,14.710000038146973 -10.239999771118164,15.092000007629395 C-3.302999973297119,18.01300048828125 3.993000030517578,19.006999969482422 10.394000053405762,14.210000038146973z"></path>
            </g>
        </g>
        <g transform="matrix(1,0,0,1,2.0489959716796875,8.085002899169922)" opacity="1" style="display: block;">
            <g opacity="1" transform="matrix(1,0,0,1,89.41699981689453,51.167999267578125)">
                <path fill="rgb(249,239,239)" fill-opacity="1" d=" M27.340999603271484,-43.874000549316406 C27.340999603271484,-43.874000549316406 -82.02300262451172,14.625 -82.02300262451172,14.625 C-82.02300262451172,14.625 -27.340999603271484,40.665504455566406 -27.340999603271484,40.665504455566406 C-27.340999603271484,40.665504455566406 82.02300262451172,-17.833494186401367 82.02300262451172,-17.833494186401367 C82.02300262451172,-17.833494186401367 27.340999603271484,-43.874000549316406 27.340999603271484,-43.874000549316406z"></path>
                <path stroke-linecap="round" stroke-linejoin="round" fill-opacity="0" stroke="rgb(0,0,0)" stroke-opacity="1" stroke-width="2.835" d=" M27.340999603271484,-43.874000549316406 C27.340999603271484,-43.874000549316406 -82.02300262451172,14.625 -82.02300262451172,14.625 C-82.02300262451172,14.625 -27.340999603271484,40.665504455566406 -27.340999603271484,40.665504455566406 C-27.340999603271484,40.665504455566406 82.02300262451172,-17.833494186401367 82.02300262451172,-17.833494186401367 C82.02300262451172,-17.833494186401367 27.340999603271484,-43.874000549316406 27.340999603271484,-43.874000549316406z"></path>
            </g>
        </g>
    </g>
</svg>