<svg width="24" height="24" fill="none" xmlns="http://www.w3.org/2000/svg"><rect x="0.75" y="0.75" width="22.5" height="22.5" rx="7.25" stroke="#BDBDBD" stroke-width="1.5"></rect><path fill-rule="evenodd" clip-rule="evenodd" d="M5.81096 12.0272C5.7981 8.64246 8.55953 5.70306 12.2767 5.84896C15.4248 5.97252 18.2629 8.54647 18.1795 12.1774C18.1043 15.4604 15.4857 18.2268 11.8967 18.1878C8.56096 18.1526 5.82953 15.4932 5.81096 12.0272ZM15.9538 12.0186C15.9857 9.813 14.16 8.02559 11.991 8.04603C9.73334 8.06694 8.02429 9.79779 8.0181 12.021C8.01239 14.1663 9.68524 15.8501 11.7695 15.9717C14.1595 16.1119 16.0257 14.1045 15.9538 12.0186Z" fill="#BDBDBD"></path><path fill-rule="evenodd" clip-rule="evenodd" d="M16.9538 5.62852C16.8609 4.89141 17.6347 4.12578 18.4614 4.16713C19.159 4.2023 19.8871 4.82915 19.8647 5.67319C19.8457 6.38796 19.2023 7.10796 18.3676 7.088C17.6547 7.07137 16.8847 6.44024 16.9538 5.62852Z" fill="#BDBDBD"></path></svg>