<svg width="42" height="18" viewBox="0 0 42 18" fill="none"
    xmlns="http://www.w3.org/2000/svg">
    <path d="M0 0H38.9225C40.3698 0 41.3379 1.4897 40.7501 2.81228L38.361 8.18772C38.1312 8.70485 38.1312 9.29515 38.361 9.81228L40.7501 15.1877C41.3379 16.5103 40.3698 18 38.9225 18H0V0Z" fill="url(#paint0_linear_4933_21308)"></path>
    <path d="M11.42 5.6L13.57 9.54L14.31 11.14H14.36L14.3 10.53C14.27 10.29 14.25 10.07 14.24 9.87C14.19 9.36 14.17 8.92 14.17 8.55V5.6H15.57V13H14.07L11.93 9.04L11.18 7.45H11.13L11.25 8.72C11.27 8.97 11.28 9.19 11.29 9.38C11.3 9.62 11.31 9.83 11.31 10.03V13H9.91V5.6H11.42ZM21.7402 5.6V6.83H18.6802V8.54H21.2802V9.78H18.6802V11.76H21.8502V13H17.2002V5.6H21.7402ZM23.9326 5.6L24.5226 9.22L24.8626 11.58H24.9026C25.0426 10.82 25.2026 10.03 25.3726 9.22L26.2326 5.61H27.4926L28.3526 9.22C28.3926 9.39 28.4326 9.58 28.4726 9.79L28.8226 11.57H28.8726L29.2026 9.21L29.7826 5.6H31.1926L29.8226 13H27.9826L27.1526 9.34C27.0826 9.03 27.0226 8.74 26.9826 8.48C26.9226 8.18 26.8726 7.9 26.8326 7.63H26.7926L26.6426 8.48C26.5826 8.8 26.5226 9.09 26.4726 9.34L25.6626 13H23.8526L22.4226 5.6H23.9326Z" fill="white"></path>
    <defs>
        <linearGradient id="paint0_linear_4933_21308" x1="2" y1="9" x2="42" y2="9" gradientUnits="userSpaceOnUse">
            <stop stop-color="#FF5D94"></stop>
            <stop offset="1" stop-color="#FF4081"></stop>
        </linearGradient>
    </defs>
</svg>