<svg fill="none" height="19" viewBox="0 0 27 19" width="27"
    xmlns="http://www.w3.org/2000/svg">
    <path d="M4.5 17.691V14H13.5L5.22361 18.1382C4.89116 18.3044 4.5 18.0627 4.5 17.691Z" fill="#2D3035"></path>
    <rect fill="#2D3035" height="16" rx="8" width="27" y="0.5"></rect>
    <path d="M5.76078 8.37V4.37H12.1008V5.37H7.07078V5.87H11.8808V6.83H7.07078V7.37H12.1708V8.37H5.76078ZM12.0308 10.56V13.37H10.7108V11.6H5.65078V10.56H12.0308ZM13.0508 9.98H4.72078V8.93H13.0508V9.98ZM18.69 5.09C18.69 5.81 18.62 6.47 18.48 7.08C18.32 7.74 18.09 8.34 17.78 8.88C17.45 9.46 17.03 9.99 16.51 10.46C15.97 10.96 15.32 11.39 14.58 11.77L13.84 10.76C15.95 9.68 17.12 8.14 17.36 6.16H14.35V5.09H18.69ZM21.14 8.76V13.35H19.82V4.15H21.14V7.67H22.43V8.76H21.14Z" fill="white"></path>
</svg>